<?xml version="1.0" standalone="no"?><!DOCTYPE svg PUBLIC "-//W3C//DTD SVG 1.1//EN" "http://www.w3.org/Graphics/SVG/1.1/DTD/svg11.dtd"><svg t="1542683311451" class="icon" style="" viewBox="0 0 1024 1024" version="1.1" xmlns="http://www.w3.org/2000/svg" p-id="1900" xmlns:xlink="http://www.w3.org/1999/xlink" width="200" height="200"><defs><style type="text/css"></style></defs><path d="M892.4 221.4c-13.1-13-28.7-19.5-47.1-19.5H178.7c-18.3 0-34 6.5-47.1 19.5-13.1 13.1-19.5 28.8-19.5 47.1v506.7c0 18.3 6.5 34 19.5 47.1 13.1 13 28.8 19.5 47.1 19.5h666.8c18.3 0 34-6.5 47.1-19.5 13-13.1 19.5-28.8 19.5-47.1V268.5c-0.1-18.5-6.6-34.1-19.7-47.1zM241.9 331.7c15.5-15.5 34.4-23.3 56.7-23.3s41.2 7.8 56.7 23.3c15.5 15.6 23.3 34.4 23.3 56.7s-7.8 41.1-23.3 56.7c-15.6 15.6-34.4 23.3-56.7 23.3s-41.1-7.8-56.7-23.3c-15.6-15.5-23.3-34.4-23.3-56.7s7.8-41.1 23.3-56.7z m563.4 403.4H218.7v-80l133.4-133.4 66.7 66.7 213.3-213.3 173.3 173.3v186.7z" p-id="1901"></path></svg>